<mxfile host="Electron" agent="Mozilla/5.0 (Windows NT 10.0; Win64; x64) AppleWebKit/537.36 (KHTML, like Gecko) draw.io/27.0.9 Chrome/134.0.6998.205 Electron/35.4.0 Safari/537.36" version="27.0.9">
  <diagram name="Page-1" id="0lozk1IP0ncq-bVI0tao">
    <mxGraphModel dx="1968" dy="523" grid="1" gridSize="10" guides="1" tooltips="1" connect="1" arrows="1" fold="1" page="1" pageScale="1" pageWidth="1100" pageHeight="850" math="0" shadow="0">
      <root>
        <mxCell id="0" />
        <mxCell id="1" parent="0" />
        <mxCell id="FHPb6D2FPAcGdjmdIMoC-2" value="" style="verticalLabelPosition=bottom;shadow=0;dashed=0;align=center;html=1;verticalAlign=top;shape=mxgraph.electrical.transistors.pmos;pointerEvents=1;strokeWidth=2;" vertex="1" parent="1">
          <mxGeometry x="60" y="340" width="60" height="100" as="geometry" />
        </mxCell>
        <mxCell id="FHPb6D2FPAcGdjmdIMoC-3" value="" style="verticalLabelPosition=bottom;shadow=0;dashed=0;align=center;html=1;verticalAlign=top;shape=mxgraph.electrical.transistors.pmos;pointerEvents=1;strokeWidth=2;" vertex="1" parent="1">
          <mxGeometry x="60" y="450" width="60" height="100" as="geometry" />
        </mxCell>
        <mxCell id="FHPb6D2FPAcGdjmdIMoC-4" value="" style="endArrow=none;html=1;rounded=0;entryX=1;entryY=1;entryDx=0;entryDy=0;entryPerimeter=0;exitX=1;exitY=0;exitDx=0;exitDy=0;exitPerimeter=0;strokeWidth=2;" edge="1" parent="1" source="FHPb6D2FPAcGdjmdIMoC-3" target="FHPb6D2FPAcGdjmdIMoC-2">
          <mxGeometry width="50" height="50" relative="1" as="geometry">
            <mxPoint x="150" y="450" as="sourcePoint" />
            <mxPoint x="200" y="400" as="targetPoint" />
          </mxGeometry>
        </mxCell>
        <mxCell id="FHPb6D2FPAcGdjmdIMoC-5" value="" style="verticalLabelPosition=bottom;shadow=0;dashed=0;align=center;html=1;verticalAlign=top;shape=mxgraph.electrical.transistors.nmos;pointerEvents=1;strokeWidth=2;" vertex="1" parent="1">
          <mxGeometry x="60" y="560" width="60" height="100" as="geometry" />
        </mxCell>
        <mxCell id="FHPb6D2FPAcGdjmdIMoC-6" value="" style="endArrow=none;html=1;rounded=0;exitX=1;exitY=0;exitDx=0;exitDy=0;exitPerimeter=0;entryX=1;entryY=1;entryDx=0;entryDy=0;entryPerimeter=0;strokeWidth=2;" edge="1" parent="1" source="FHPb6D2FPAcGdjmdIMoC-5" target="FHPb6D2FPAcGdjmdIMoC-3">
          <mxGeometry width="50" height="50" relative="1" as="geometry">
            <mxPoint x="120" y="560" as="sourcePoint" />
            <mxPoint x="170" y="510" as="targetPoint" />
          </mxGeometry>
        </mxCell>
        <mxCell id="FHPb6D2FPAcGdjmdIMoC-7" value="" style="verticalLabelPosition=bottom;shadow=0;dashed=0;align=center;html=1;verticalAlign=top;shape=mxgraph.electrical.transistors.pmos;pointerEvents=1;strokeWidth=2;" vertex="1" parent="1">
          <mxGeometry x="210" y="340" width="60" height="100" as="geometry" />
        </mxCell>
        <mxCell id="FHPb6D2FPAcGdjmdIMoC-8" value="" style="verticalLabelPosition=bottom;shadow=0;dashed=0;align=center;html=1;verticalAlign=top;shape=mxgraph.electrical.transistors.nmos;pointerEvents=1;strokeWidth=2;" vertex="1" parent="1">
          <mxGeometry x="210" y="450" width="60" height="100" as="geometry" />
        </mxCell>
        <mxCell id="FHPb6D2FPAcGdjmdIMoC-9" value="" style="verticalLabelPosition=bottom;shadow=0;dashed=0;align=center;html=1;verticalAlign=top;shape=mxgraph.electrical.transistors.nmos;pointerEvents=1;strokeWidth=2;" vertex="1" parent="1">
          <mxGeometry x="210" y="560" width="60" height="100" as="geometry" />
        </mxCell>
        <mxCell id="FHPb6D2FPAcGdjmdIMoC-10" value="" style="endArrow=none;html=1;rounded=0;entryX=1;entryY=1;entryDx=0;entryDy=0;entryPerimeter=0;exitX=1;exitY=0;exitDx=0;exitDy=0;exitPerimeter=0;strokeWidth=2;" edge="1" parent="1" source="FHPb6D2FPAcGdjmdIMoC-8" target="FHPb6D2FPAcGdjmdIMoC-7">
          <mxGeometry width="50" height="50" relative="1" as="geometry">
            <mxPoint x="130" y="550" as="sourcePoint" />
            <mxPoint x="180" y="500" as="targetPoint" />
          </mxGeometry>
        </mxCell>
        <mxCell id="FHPb6D2FPAcGdjmdIMoC-11" value="" style="endArrow=none;html=1;rounded=0;entryX=1;entryY=1;entryDx=0;entryDy=0;entryPerimeter=0;exitX=1;exitY=0;exitDx=0;exitDy=0;exitPerimeter=0;strokeWidth=2;" edge="1" parent="1" source="FHPb6D2FPAcGdjmdIMoC-9" target="FHPb6D2FPAcGdjmdIMoC-8">
          <mxGeometry width="50" height="50" relative="1" as="geometry">
            <mxPoint x="130" y="550" as="sourcePoint" />
            <mxPoint x="180" y="500" as="targetPoint" />
          </mxGeometry>
        </mxCell>
        <mxCell id="FHPb6D2FPAcGdjmdIMoC-12" value="" style="verticalLabelPosition=bottom;shadow=0;dashed=0;align=center;html=1;verticalAlign=top;shape=mxgraph.electrical.transistors.pmos;pointerEvents=1;strokeWidth=2;" vertex="1" parent="1">
          <mxGeometry x="360" y="290" width="60" height="100" as="geometry" />
        </mxCell>
        <mxCell id="FHPb6D2FPAcGdjmdIMoC-13" value="" style="verticalLabelPosition=bottom;shadow=0;dashed=0;align=center;html=1;verticalAlign=top;shape=mxgraph.electrical.transistors.pmos;pointerEvents=1;strokeWidth=2;" vertex="1" parent="1">
          <mxGeometry x="360" y="370" width="60" height="100" as="geometry" />
        </mxCell>
        <mxCell id="FHPb6D2FPAcGdjmdIMoC-14" value="" style="verticalLabelPosition=bottom;shadow=0;dashed=0;align=center;html=1;verticalAlign=top;shape=mxgraph.electrical.transistors.nmos;pointerEvents=1;strokeWidth=2;" vertex="1" parent="1">
          <mxGeometry x="360" y="470" width="60" height="100" as="geometry" />
        </mxCell>
        <mxCell id="FHPb6D2FPAcGdjmdIMoC-15" value="" style="verticalLabelPosition=bottom;shadow=0;dashed=0;align=center;html=1;verticalAlign=top;shape=mxgraph.electrical.transistors.nmos;pointerEvents=1;strokeWidth=2;" vertex="1" parent="1">
          <mxGeometry x="360" y="560" width="60" height="100" as="geometry" />
        </mxCell>
        <mxCell id="FHPb6D2FPAcGdjmdIMoC-16" value="" style="endArrow=none;html=1;rounded=0;entryX=1;entryY=1;entryDx=0;entryDy=0;entryPerimeter=0;exitX=1;exitY=0;exitDx=0;exitDy=0;exitPerimeter=0;strokeWidth=2;" edge="1" parent="1" source="FHPb6D2FPAcGdjmdIMoC-14" target="FHPb6D2FPAcGdjmdIMoC-13">
          <mxGeometry width="50" height="50" relative="1" as="geometry">
            <mxPoint x="400" y="510" as="sourcePoint" />
            <mxPoint x="450" y="460" as="targetPoint" />
          </mxGeometry>
        </mxCell>
        <mxCell id="FHPb6D2FPAcGdjmdIMoC-18" value="" style="endArrow=none;html=1;rounded=0;exitX=1;exitY=0;exitDx=0;exitDy=0;exitPerimeter=0;entryX=1;entryY=0;entryDx=0;entryDy=0;entryPerimeter=0;strokeWidth=2;" edge="1" parent="1">
          <mxGeometry width="50" height="50" relative="1" as="geometry">
            <mxPoint x="120" y="352.8571428571429" as="sourcePoint" />
            <mxPoint x="420" y="302.8571428571429" as="targetPoint" />
            <Array as="points">
              <mxPoint x="120" y="280" />
              <mxPoint x="420" y="280" />
            </Array>
          </mxGeometry>
        </mxCell>
        <mxCell id="FHPb6D2FPAcGdjmdIMoC-19" value="" style="endArrow=none;html=1;rounded=0;exitX=1;exitY=0;exitDx=0;exitDy=0;exitPerimeter=0;strokeWidth=2;" edge="1" parent="1" source="FHPb6D2FPAcGdjmdIMoC-7">
          <mxGeometry width="50" height="50" relative="1" as="geometry">
            <mxPoint x="320" y="450" as="sourcePoint" />
            <mxPoint x="270" y="280" as="targetPoint" />
          </mxGeometry>
        </mxCell>
        <mxCell id="FHPb6D2FPAcGdjmdIMoC-20" value="" style="endArrow=none;html=1;rounded=0;exitX=1;exitY=1;exitDx=0;exitDy=0;exitPerimeter=0;entryX=1;entryY=1;entryDx=0;entryDy=0;entryPerimeter=0;strokeWidth=2;" edge="1" parent="1" source="FHPb6D2FPAcGdjmdIMoC-5" target="FHPb6D2FPAcGdjmdIMoC-15">
          <mxGeometry width="50" height="50" relative="1" as="geometry">
            <mxPoint x="320" y="690" as="sourcePoint" />
            <mxPoint x="370" y="640" as="targetPoint" />
            <Array as="points">
              <mxPoint x="120" y="670" />
              <mxPoint x="420" y="670" />
            </Array>
          </mxGeometry>
        </mxCell>
        <mxCell id="FHPb6D2FPAcGdjmdIMoC-21" value="" style="endArrow=none;html=1;rounded=0;entryX=1;entryY=1;entryDx=0;entryDy=0;entryPerimeter=0;strokeWidth=2;" edge="1" parent="1" source="FHPb6D2FPAcGdjmdIMoC-67" target="FHPb6D2FPAcGdjmdIMoC-9">
          <mxGeometry width="50" height="50" relative="1" as="geometry">
            <mxPoint x="270" y="670" as="sourcePoint" />
            <mxPoint x="370" y="640" as="targetPoint" />
          </mxGeometry>
        </mxCell>
        <mxCell id="FHPb6D2FPAcGdjmdIMoC-22" value="" style="pointerEvents=1;verticalLabelPosition=bottom;shadow=0;dashed=0;align=center;html=1;verticalAlign=top;shape=mxgraph.electrical.signal_sources.protective_earth;strokeWidth=2;" vertex="1" parent="1">
          <mxGeometry x="260" y="680" width="20" height="20" as="geometry" />
        </mxCell>
        <mxCell id="FHPb6D2FPAcGdjmdIMoC-23" value="" style="endArrow=none;html=1;rounded=0;exitX=0.5;exitY=0;exitDx=0;exitDy=0;exitPerimeter=0;strokeWidth=2;" edge="1" parent="1" source="FHPb6D2FPAcGdjmdIMoC-22">
          <mxGeometry width="50" height="50" relative="1" as="geometry">
            <mxPoint x="320" y="690" as="sourcePoint" />
            <mxPoint x="270" y="670" as="targetPoint" />
          </mxGeometry>
        </mxCell>
        <mxCell id="FHPb6D2FPAcGdjmdIMoC-24" value="V&lt;sub&gt;dd&lt;/sub&gt;" style="verticalLabelPosition=top;verticalAlign=bottom;shape=mxgraph.electrical.signal_sources.vdd;shadow=0;dashed=0;align=center;strokeWidth=2;fontSize=24;html=1;flipV=1;" vertex="1" parent="1">
          <mxGeometry x="240" y="250" width="60" height="40" as="geometry" />
        </mxCell>
        <mxCell id="FHPb6D2FPAcGdjmdIMoC-25" value="" style="endArrow=none;html=1;rounded=0;entryX=0;entryY=0.5;entryDx=0;entryDy=0;entryPerimeter=0;exitX=0;exitY=0.5;exitDx=0;exitDy=0;exitPerimeter=0;strokeWidth=2;" edge="1" parent="1" source="FHPb6D2FPAcGdjmdIMoC-5" target="FHPb6D2FPAcGdjmdIMoC-2">
          <mxGeometry width="50" height="50" relative="1" as="geometry">
            <mxPoint x="-10" y="470" as="sourcePoint" />
            <mxPoint x="40" y="420" as="targetPoint" />
            <Array as="points">
              <mxPoint x="-10" y="610" />
              <mxPoint x="-10" y="390" />
            </Array>
          </mxGeometry>
        </mxCell>
        <mxCell id="FHPb6D2FPAcGdjmdIMoC-26" value="" style="endArrow=none;html=1;rounded=0;exitX=0;exitY=0.5;exitDx=0;exitDy=0;exitPerimeter=0;strokeWidth=2;" edge="1" parent="1" source="FHPb6D2FPAcGdjmdIMoC-3">
          <mxGeometry width="50" height="50" relative="1" as="geometry">
            <mxPoint x="120" y="480" as="sourcePoint" />
            <mxPoint x="40" y="500" as="targetPoint" />
          </mxGeometry>
        </mxCell>
        <mxCell id="FHPb6D2FPAcGdjmdIMoC-27" value="&lt;font style=&quot;font-size: 15px; color: rgb(51, 51, 255);&quot;&gt;&lt;b&gt;CLK&lt;/b&gt;&lt;/font&gt;" style="text;strokeColor=none;align=center;fillColor=none;html=1;verticalAlign=middle;whiteSpace=wrap;rounded=0;strokeWidth=2;" vertex="1" parent="1">
          <mxGeometry x="20" y="470" width="60" height="30" as="geometry" />
        </mxCell>
        <mxCell id="FHPb6D2FPAcGdjmdIMoC-28" value="" style="endArrow=none;html=1;rounded=0;strokeWidth=2;" edge="1" parent="1">
          <mxGeometry width="50" height="50" relative="1" as="geometry">
            <mxPoint x="-50" y="499.31" as="sourcePoint" />
            <mxPoint x="-10" y="499.31" as="targetPoint" />
          </mxGeometry>
        </mxCell>
        <mxCell id="FHPb6D2FPAcGdjmdIMoC-29" value="&lt;font style=&quot;font-size: 16px; color: rgb(0, 204, 0);&quot;&gt;&lt;b&gt;D&lt;/b&gt;&lt;/font&gt;" style="text;strokeColor=none;align=center;fillColor=none;html=1;verticalAlign=middle;whiteSpace=wrap;rounded=0;strokeWidth=2;" vertex="1" parent="1">
          <mxGeometry x="-70" y="470" width="60" height="30" as="geometry" />
        </mxCell>
        <mxCell id="FHPb6D2FPAcGdjmdIMoC-30" value="" style="endArrow=none;html=1;rounded=0;entryX=0;entryY=0.5;entryDx=0;entryDy=0;entryPerimeter=0;exitX=1;exitY=0;exitDx=0;exitDy=0;exitPerimeter=0;strokeWidth=2;" edge="1" parent="1" source="FHPb6D2FPAcGdjmdIMoC-5" target="FHPb6D2FPAcGdjmdIMoC-8">
          <mxGeometry width="50" height="50" relative="1" as="geometry">
            <mxPoint x="160" y="580" as="sourcePoint" />
            <mxPoint x="300" y="500" as="targetPoint" />
            <Array as="points">
              <mxPoint x="210" y="563" />
            </Array>
          </mxGeometry>
        </mxCell>
        <mxCell id="FHPb6D2FPAcGdjmdIMoC-31" value="" style="shape=waypoint;sketch=0;fillStyle=solid;size=6;pointerEvents=1;points=[];fillColor=none;resizable=0;rotatable=0;perimeter=centerPerimeter;snapToPoint=1;strokeWidth=2;" vertex="1" parent="1">
          <mxGeometry x="110" y="553" width="20" height="20" as="geometry" />
        </mxCell>
        <mxCell id="FHPb6D2FPAcGdjmdIMoC-34" value="" style="endArrow=none;html=1;rounded=0;exitX=0;exitY=0.5;exitDx=0;exitDy=0;exitPerimeter=0;strokeWidth=2;" edge="1" parent="1">
          <mxGeometry width="50" height="50" relative="1" as="geometry">
            <mxPoint x="220" y="390" as="sourcePoint" />
            <mxPoint x="200" y="390" as="targetPoint" />
          </mxGeometry>
        </mxCell>
        <mxCell id="FHPb6D2FPAcGdjmdIMoC-35" value="&lt;font style=&quot;font-size: 15px; color: rgb(51, 51, 255);&quot;&gt;&lt;b&gt;CLK&lt;/b&gt;&lt;/font&gt;" style="text;strokeColor=none;align=center;fillColor=none;html=1;verticalAlign=middle;whiteSpace=wrap;rounded=0;strokeWidth=2;" vertex="1" parent="1">
          <mxGeometry x="180" y="360" width="60" height="30" as="geometry" />
        </mxCell>
        <mxCell id="FHPb6D2FPAcGdjmdIMoC-36" value="" style="endArrow=none;html=1;rounded=0;exitX=0;exitY=0.5;exitDx=0;exitDy=0;exitPerimeter=0;strokeWidth=2;" edge="1" parent="1">
          <mxGeometry width="50" height="50" relative="1" as="geometry">
            <mxPoint x="220" y="610" as="sourcePoint" />
            <mxPoint x="200" y="610" as="targetPoint" />
          </mxGeometry>
        </mxCell>
        <mxCell id="FHPb6D2FPAcGdjmdIMoC-37" value="&lt;font style=&quot;font-size: 15px; color: rgb(51, 51, 255);&quot;&gt;&lt;b&gt;CLK&lt;/b&gt;&lt;/font&gt;" style="text;strokeColor=none;align=center;fillColor=none;html=1;verticalAlign=middle;whiteSpace=wrap;rounded=0;strokeWidth=2;" vertex="1" parent="1">
          <mxGeometry x="180" y="580" width="60" height="30" as="geometry" />
        </mxCell>
        <mxCell id="FHPb6D2FPAcGdjmdIMoC-38" value="" style="endArrow=none;html=1;rounded=0;entryX=0;entryY=0.5;entryDx=0;entryDy=0;entryPerimeter=0;exitX=0;exitY=0.5;exitDx=0;exitDy=0;exitPerimeter=0;strokeWidth=2;" edge="1" parent="1" source="FHPb6D2FPAcGdjmdIMoC-15" target="FHPb6D2FPAcGdjmdIMoC-12">
          <mxGeometry width="50" height="50" relative="1" as="geometry">
            <mxPoint x="320" y="550" as="sourcePoint" />
            <mxPoint x="270" y="390" as="targetPoint" />
            <Array as="points">
              <mxPoint x="300" y="610" />
              <mxPoint x="300" y="340" />
            </Array>
          </mxGeometry>
        </mxCell>
        <mxCell id="FHPb6D2FPAcGdjmdIMoC-39" value="" style="endArrow=none;html=1;rounded=0;exitX=1;exitY=0;exitDx=0;exitDy=0;exitPerimeter=0;strokeWidth=2;" edge="1" parent="1" source="FHPb6D2FPAcGdjmdIMoC-8">
          <mxGeometry width="50" height="50" relative="1" as="geometry">
            <mxPoint x="220" y="440" as="sourcePoint" />
            <mxPoint x="300" y="453" as="targetPoint" />
          </mxGeometry>
        </mxCell>
        <mxCell id="FHPb6D2FPAcGdjmdIMoC-40" value="" style="shape=waypoint;sketch=0;fillStyle=solid;size=6;pointerEvents=1;points=[];fillColor=none;resizable=0;rotatable=0;perimeter=centerPerimeter;snapToPoint=1;strokeWidth=2;" vertex="1" parent="1">
          <mxGeometry x="290" y="443" width="20" height="20" as="geometry" />
        </mxCell>
        <mxCell id="FHPb6D2FPAcGdjmdIMoC-41" value="" style="shape=waypoint;sketch=0;fillStyle=solid;size=6;pointerEvents=1;points=[];fillColor=none;resizable=0;rotatable=0;perimeter=centerPerimeter;snapToPoint=1;strokeWidth=2;" vertex="1" parent="1">
          <mxGeometry x="260" y="443" width="20" height="20" as="geometry" />
        </mxCell>
        <mxCell id="FHPb6D2FPAcGdjmdIMoC-42" value="&lt;font style=&quot;font-size: 15px; color: rgb(204, 204, 0);&quot;&gt;&lt;b&gt;SET&lt;/b&gt;&lt;/font&gt;" style="text;strokeColor=none;align=center;fillColor=none;html=1;verticalAlign=middle;whiteSpace=wrap;rounded=0;strokeWidth=2;" vertex="1" parent="1">
          <mxGeometry x="330" y="395" width="60" height="30" as="geometry" />
        </mxCell>
        <mxCell id="FHPb6D2FPAcGdjmdIMoC-43" value="&lt;font style=&quot;font-size: 15px; color: rgb(51, 51, 255);&quot;&gt;&lt;b&gt;CLK&lt;/b&gt;&lt;/font&gt;" style="text;strokeColor=none;align=center;fillColor=none;html=1;verticalAlign=middle;whiteSpace=wrap;rounded=0;strokeWidth=2;" vertex="1" parent="1">
          <mxGeometry x="330" y="490" width="60" height="30" as="geometry" />
        </mxCell>
        <mxCell id="FHPb6D2FPAcGdjmdIMoC-45" value="" style="shape=waypoint;sketch=0;fillStyle=solid;size=6;pointerEvents=1;points=[];fillColor=none;resizable=0;rotatable=0;perimeter=centerPerimeter;snapToPoint=1;strokeWidth=2;" vertex="1" parent="1">
          <mxGeometry x="410" y="470" width="20" height="20" as="geometry" />
        </mxCell>
        <mxCell id="FHPb6D2FPAcGdjmdIMoC-46" value="" style="endArrow=classic;html=1;rounded=0;strokeColor=#FF6666;strokeWidth=2;" edge="1" parent="1">
          <mxGeometry width="50" height="50" relative="1" as="geometry">
            <mxPoint x="690" y="480" as="sourcePoint" />
            <mxPoint x="740" y="480" as="targetPoint" />
          </mxGeometry>
        </mxCell>
        <mxCell id="FHPb6D2FPAcGdjmdIMoC-47" value="&lt;font style=&quot;font-size: 17px; color: rgb(255, 102, 102);&quot;&gt;&lt;b&gt;Q&lt;/b&gt;&lt;/font&gt;" style="text;strokeColor=none;align=center;fillColor=none;html=1;verticalAlign=middle;whiteSpace=wrap;rounded=0;strokeWidth=2;" vertex="1" parent="1">
          <mxGeometry x="690" y="450" width="60" height="30" as="geometry" />
        </mxCell>
        <mxCell id="FHPb6D2FPAcGdjmdIMoC-48" value="" style="verticalLabelPosition=bottom;shadow=0;dashed=0;align=center;html=1;verticalAlign=top;shape=mxgraph.electrical.logic_gates.inverter_2;strokeWidth=2;" vertex="1" parent="1">
          <mxGeometry x="590" y="450" width="100" height="60" as="geometry" />
        </mxCell>
        <mxCell id="FHPb6D2FPAcGdjmdIMoC-49" value="" style="verticalLabelPosition=bottom;shadow=0;dashed=0;align=center;html=1;verticalAlign=top;shape=mxgraph.electrical.transistors.pmos;pointerEvents=1;strokeWidth=2;" vertex="1" parent="1">
          <mxGeometry x="500" y="370" width="60" height="100" as="geometry" />
        </mxCell>
        <mxCell id="FHPb6D2FPAcGdjmdIMoC-50" value="" style="verticalLabelPosition=bottom;shadow=0;dashed=0;align=center;html=1;verticalAlign=top;shape=mxgraph.electrical.transistors.nmos;pointerEvents=1;strokeWidth=2;" vertex="1" parent="1">
          <mxGeometry x="500" y="470" width="60" height="100" as="geometry" />
        </mxCell>
        <mxCell id="FHPb6D2FPAcGdjmdIMoC-51" value="" style="endArrow=none;html=1;rounded=0;entryX=1;entryY=1;entryDx=0;entryDy=0;entryPerimeter=0;exitX=1;exitY=0;exitDx=0;exitDy=0;exitPerimeter=0;strokeWidth=2;" edge="1" parent="1" source="FHPb6D2FPAcGdjmdIMoC-50" target="FHPb6D2FPAcGdjmdIMoC-49">
          <mxGeometry width="50" height="50" relative="1" as="geometry">
            <mxPoint x="540" y="510" as="sourcePoint" />
            <mxPoint x="590" y="460" as="targetPoint" />
          </mxGeometry>
        </mxCell>
        <mxCell id="FHPb6D2FPAcGdjmdIMoC-52" value="&lt;font style=&quot;font-size: 15px; color: rgb(204, 204, 0);&quot;&gt;&lt;b&gt;RESET&lt;/b&gt;&lt;/font&gt;" style="text;strokeColor=none;align=center;fillColor=none;html=1;verticalAlign=middle;whiteSpace=wrap;rounded=0;strokeWidth=2;" vertex="1" parent="1">
          <mxGeometry x="340" y="200" width="60" height="30" as="geometry" />
        </mxCell>
        <mxCell id="FHPb6D2FPAcGdjmdIMoC-54" value="" style="shape=waypoint;sketch=0;fillStyle=solid;size=6;pointerEvents=1;points=[];fillColor=none;resizable=0;rotatable=0;perimeter=centerPerimeter;snapToPoint=1;strokeWidth=2;" vertex="1" parent="1">
          <mxGeometry x="550" y="470" width="20" height="20" as="geometry" />
        </mxCell>
        <mxCell id="FHPb6D2FPAcGdjmdIMoC-55" value="" style="endArrow=none;html=1;rounded=0;entryX=0;entryY=0.5;entryDx=0;entryDy=0;entryPerimeter=0;exitX=0.89;exitY=0.454;exitDx=0;exitDy=0;exitPerimeter=0;strokeWidth=2;" edge="1" parent="1" source="FHPb6D2FPAcGdjmdIMoC-54" target="FHPb6D2FPAcGdjmdIMoC-48">
          <mxGeometry width="50" height="50" relative="1" as="geometry">
            <mxPoint x="590" y="460" as="sourcePoint" />
            <mxPoint x="640" y="410" as="targetPoint" />
          </mxGeometry>
        </mxCell>
        <mxCell id="FHPb6D2FPAcGdjmdIMoC-56" value="" style="endArrow=none;html=1;rounded=0;entryX=1;entryY=0;entryDx=0;entryDy=0;entryPerimeter=0;strokeWidth=2;" edge="1" parent="1" target="FHPb6D2FPAcGdjmdIMoC-49">
          <mxGeometry width="50" height="50" relative="1" as="geometry">
            <mxPoint x="420" y="280" as="sourcePoint" />
            <mxPoint x="460" y="340" as="targetPoint" />
            <Array as="points">
              <mxPoint x="560" y="280" />
            </Array>
          </mxGeometry>
        </mxCell>
        <mxCell id="FHPb6D2FPAcGdjmdIMoC-57" value="" style="shape=waypoint;sketch=0;fillStyle=solid;size=6;pointerEvents=1;points=[];fillColor=none;resizable=0;rotatable=0;perimeter=centerPerimeter;snapToPoint=1;" vertex="1" parent="1">
          <mxGeometry x="410" y="270" width="20" height="20" as="geometry" />
        </mxCell>
        <mxCell id="FHPb6D2FPAcGdjmdIMoC-58" value="" style="shape=waypoint;sketch=0;fillStyle=solid;size=6;pointerEvents=1;points=[];fillColor=none;resizable=0;rotatable=0;perimeter=centerPerimeter;snapToPoint=1;" vertex="1" parent="1">
          <mxGeometry x="260" y="270" width="20" height="20" as="geometry" />
        </mxCell>
        <mxCell id="FHPb6D2FPAcGdjmdIMoC-60" value="" style="verticalLabelPosition=bottom;shadow=0;dashed=0;align=center;html=1;verticalAlign=top;shape=mxgraph.electrical.logic_gates.inverter_2;strokeWidth=2;" vertex="1" parent="1">
          <mxGeometry x="410" y="210" width="60" height="40" as="geometry" />
        </mxCell>
        <mxCell id="FHPb6D2FPAcGdjmdIMoC-61" value="" style="endArrow=none;html=1;rounded=0;strokeWidth=2;exitX=1;exitY=0.5;exitDx=0;exitDy=0;exitPerimeter=0;entryX=0;entryY=0.5;entryDx=0;entryDy=0;entryPerimeter=0;" edge="1" parent="1" source="FHPb6D2FPAcGdjmdIMoC-60" target="FHPb6D2FPAcGdjmdIMoC-49">
          <mxGeometry width="50" height="50" relative="1" as="geometry">
            <mxPoint x="450" y="310" as="sourcePoint" />
            <mxPoint x="500" y="260" as="targetPoint" />
            <Array as="points">
              <mxPoint x="490" y="230" />
              <mxPoint x="490" y="420" />
            </Array>
          </mxGeometry>
        </mxCell>
        <mxCell id="FHPb6D2FPAcGdjmdIMoC-62" value="" style="endArrow=none;html=1;rounded=0;strokeWidth=2;entryX=0;entryY=0.5;entryDx=0;entryDy=0;entryPerimeter=0;" edge="1" parent="1" target="FHPb6D2FPAcGdjmdIMoC-60">
          <mxGeometry width="50" height="50" relative="1" as="geometry">
            <mxPoint x="370" y="230" as="sourcePoint" />
            <mxPoint x="385" y="220" as="targetPoint" />
          </mxGeometry>
        </mxCell>
        <mxCell id="FHPb6D2FPAcGdjmdIMoC-63" value="&lt;font style=&quot;font-size: 15px; color: rgb(204, 204, 0);&quot;&gt;&lt;b&gt;SET&lt;/b&gt;&lt;/font&gt;" style="text;strokeColor=none;align=center;fillColor=none;html=1;verticalAlign=middle;whiteSpace=wrap;rounded=0;strokeWidth=2;" vertex="1" parent="1">
          <mxGeometry x="470" y="490" width="60" height="30" as="geometry" />
        </mxCell>
        <mxCell id="FHPb6D2FPAcGdjmdIMoC-64" value="" style="endArrow=none;html=1;rounded=0;entryX=1;entryY=1;entryDx=0;entryDy=0;entryPerimeter=0;strokeWidth=2;" edge="1" parent="1" source="FHPb6D2FPAcGdjmdIMoC-65" target="FHPb6D2FPAcGdjmdIMoC-50">
          <mxGeometry width="50" height="50" relative="1" as="geometry">
            <mxPoint x="420" y="670" as="sourcePoint" />
            <mxPoint x="460" y="540" as="targetPoint" />
            <Array as="points">
              <mxPoint x="560" y="670" />
            </Array>
          </mxGeometry>
        </mxCell>
        <mxCell id="FHPb6D2FPAcGdjmdIMoC-66" value="" style="endArrow=none;html=1;rounded=0;entryDx=0;entryDy=0;entryPerimeter=0;strokeWidth=2;" edge="1" parent="1" target="FHPb6D2FPAcGdjmdIMoC-65">
          <mxGeometry width="50" height="50" relative="1" as="geometry">
            <mxPoint x="420" y="670" as="sourcePoint" />
            <mxPoint x="560" y="567" as="targetPoint" />
            <Array as="points" />
          </mxGeometry>
        </mxCell>
        <mxCell id="FHPb6D2FPAcGdjmdIMoC-65" value="" style="shape=waypoint;sketch=0;fillStyle=solid;size=6;pointerEvents=1;points=[];fillColor=none;resizable=0;rotatable=0;perimeter=centerPerimeter;snapToPoint=1;" vertex="1" parent="1">
          <mxGeometry x="410" y="660" width="20" height="20" as="geometry" />
        </mxCell>
        <mxCell id="FHPb6D2FPAcGdjmdIMoC-69" value="" style="endArrow=none;html=1;rounded=0;entryDx=0;entryDy=0;entryPerimeter=0;strokeWidth=2;" edge="1" parent="1" target="FHPb6D2FPAcGdjmdIMoC-67">
          <mxGeometry width="50" height="50" relative="1" as="geometry">
            <mxPoint x="270" y="670" as="sourcePoint" />
            <mxPoint x="270" y="657" as="targetPoint" />
          </mxGeometry>
        </mxCell>
        <mxCell id="FHPb6D2FPAcGdjmdIMoC-67" value="" style="shape=waypoint;sketch=0;fillStyle=solid;size=6;pointerEvents=1;points=[];fillColor=none;resizable=0;rotatable=0;perimeter=centerPerimeter;snapToPoint=1;" vertex="1" parent="1">
          <mxGeometry x="260" y="660" width="20" height="20" as="geometry" />
        </mxCell>
        <mxCell id="FHPb6D2FPAcGdjmdIMoC-70" value="&lt;font style=&quot;font-size: 14px;&quot;&gt;M1&lt;/font&gt;" style="text;strokeColor=none;align=center;fillColor=none;html=1;verticalAlign=middle;whiteSpace=wrap;rounded=0;" vertex="1" parent="1">
          <mxGeometry x="110" y="375" width="60" height="30" as="geometry" />
        </mxCell>
        <mxCell id="FHPb6D2FPAcGdjmdIMoC-71" value="&lt;font style=&quot;font-size: 14px;&quot;&gt;M2&lt;/font&gt;" style="text;strokeColor=none;align=center;fillColor=none;html=1;verticalAlign=middle;whiteSpace=wrap;rounded=0;" vertex="1" parent="1">
          <mxGeometry x="110" y="485" width="60" height="30" as="geometry" />
        </mxCell>
        <mxCell id="FHPb6D2FPAcGdjmdIMoC-72" value="&lt;font style=&quot;font-size: 14px;&quot;&gt;M3&lt;/font&gt;" style="text;strokeColor=none;align=center;fillColor=none;html=1;verticalAlign=middle;whiteSpace=wrap;rounded=0;" vertex="1" parent="1">
          <mxGeometry x="110" y="595" width="60" height="30" as="geometry" />
        </mxCell>
        <mxCell id="FHPb6D2FPAcGdjmdIMoC-73" value="&lt;font style=&quot;font-size: 14px;&quot;&gt;M4&lt;/font&gt;" style="text;strokeColor=none;align=center;fillColor=none;html=1;verticalAlign=middle;whiteSpace=wrap;rounded=0;" vertex="1" parent="1">
          <mxGeometry x="250" y="375" width="60" height="30" as="geometry" />
        </mxCell>
        <mxCell id="FHPb6D2FPAcGdjmdIMoC-74" value="&lt;font style=&quot;font-size: 14px;&quot;&gt;M5&lt;/font&gt;" style="text;strokeColor=none;align=center;fillColor=none;html=1;verticalAlign=middle;whiteSpace=wrap;rounded=0;" vertex="1" parent="1">
          <mxGeometry x="250" y="485" width="60" height="30" as="geometry" />
        </mxCell>
        <mxCell id="FHPb6D2FPAcGdjmdIMoC-75" value="&lt;font style=&quot;font-size: 14px;&quot;&gt;M6&lt;/font&gt;" style="text;strokeColor=none;align=center;fillColor=none;html=1;verticalAlign=middle;whiteSpace=wrap;rounded=0;" vertex="1" parent="1">
          <mxGeometry x="250" y="595" width="60" height="30" as="geometry" />
        </mxCell>
        <mxCell id="FHPb6D2FPAcGdjmdIMoC-76" value="&lt;font style=&quot;font-size: 14px;&quot;&gt;M7&lt;/font&gt;" style="text;strokeColor=none;align=center;fillColor=none;html=1;verticalAlign=middle;whiteSpace=wrap;rounded=0;" vertex="1" parent="1">
          <mxGeometry x="400" y="325" width="60" height="30" as="geometry" />
        </mxCell>
        <mxCell id="FHPb6D2FPAcGdjmdIMoC-77" value="&lt;font style=&quot;font-size: 14px;&quot;&gt;M8&lt;/font&gt;" style="text;strokeColor=none;align=center;fillColor=none;html=1;verticalAlign=middle;whiteSpace=wrap;rounded=0;" vertex="1" parent="1">
          <mxGeometry x="410" y="405" width="60" height="30" as="geometry" />
        </mxCell>
        <mxCell id="FHPb6D2FPAcGdjmdIMoC-78" value="&lt;font style=&quot;font-size: 14px;&quot;&gt;M9&lt;/font&gt;" style="text;strokeColor=none;align=center;fillColor=none;html=1;verticalAlign=middle;whiteSpace=wrap;rounded=0;" vertex="1" parent="1">
          <mxGeometry x="410" y="505" width="60" height="30" as="geometry" />
        </mxCell>
        <mxCell id="FHPb6D2FPAcGdjmdIMoC-79" value="&lt;font style=&quot;font-size: 14px;&quot;&gt;M10&lt;/font&gt;" style="text;strokeColor=none;align=center;fillColor=none;html=1;verticalAlign=middle;whiteSpace=wrap;rounded=0;" vertex="1" parent="1">
          <mxGeometry x="410" y="595" width="60" height="30" as="geometry" />
        </mxCell>
        <mxCell id="FHPb6D2FPAcGdjmdIMoC-80" value="&lt;font style=&quot;font-size: 14px;&quot;&gt;M11&lt;/font&gt;" style="text;strokeColor=none;align=center;fillColor=none;html=1;verticalAlign=middle;whiteSpace=wrap;rounded=0;" vertex="1" parent="1">
          <mxGeometry x="550" y="405" width="60" height="30" as="geometry" />
        </mxCell>
        <mxCell id="FHPb6D2FPAcGdjmdIMoC-81" value="&lt;font style=&quot;font-size: 14px;&quot;&gt;M12&lt;/font&gt;" style="text;strokeColor=none;align=center;fillColor=none;html=1;verticalAlign=middle;whiteSpace=wrap;rounded=0;" vertex="1" parent="1">
          <mxGeometry x="550" y="505" width="60" height="30" as="geometry" />
        </mxCell>
        <mxCell id="FHPb6D2FPAcGdjmdIMoC-82" value="" style="endArrow=none;html=1;rounded=0;strokeWidth=2;entryX=0.281;entryY=0.569;entryDx=0;entryDy=0;entryPerimeter=0;exitX=0.69;exitY=0.455;exitDx=0;exitDy=0;exitPerimeter=0;" edge="1" parent="1" source="FHPb6D2FPAcGdjmdIMoC-45" target="FHPb6D2FPAcGdjmdIMoC-54">
          <mxGeometry width="50" height="50" relative="1" as="geometry">
            <mxPoint x="470" y="493" as="sourcePoint" />
            <mxPoint x="520" y="443" as="targetPoint" />
          </mxGeometry>
        </mxCell>
      </root>
    </mxGraphModel>
  </diagram>
</mxfile>
